<svg width="48" height="48" viewBox="0 0 48 48" fill="none" xmlns="http://www.w3.org/2000/svg">
<path d="M42.5 36.9402L39.2 37.7202C38.46 37.9002 37.88 38.4602 37.72 39.2002L37.02 42.1402C36.64 43.7402 34.6 44.2402 33.54 42.9802L27.56 36.1002C27.08 35.5402 27.34 34.6602 28.06 34.4802C31.6 33.6202 34.78 31.6402 37.12 28.8202C37.5 28.3602 38.18 28.3002 38.6 28.7202L43.04 33.1602C44.56 34.6802 44.02 36.5802 42.5 36.9402Z" fill="#FEC84B"/>
<path d="M5.4 36.9402L8.7 37.7202C9.44 37.9002 10.02 38.4602 10.18 39.2002L10.88 42.1402C11.26 43.7402 13.3 44.2402 14.36 42.9802L20.34 36.1002C20.82 35.5402 20.56 34.6602 19.84 34.4802C16.3 33.6202 13.12 31.6402 10.78 28.8202C10.4 28.3602 9.72 28.3002 9.3 28.7202L4.86 33.1602C3.34 34.6802 3.88 36.5802 5.4 36.9402Z" fill="#FEC84B"/>
<path d="M24 4C16.26 4 10 10.26 10 18C10 20.9 10.86 23.56 12.34 25.78C14.5 28.98 17.92 31.24 21.9 31.82C22.58 31.94 23.28 32 24 32C24.72 32 25.42 31.94 26.1 31.82C30.08 31.24 33.5 28.98 35.66 25.78C37.14 23.56 38 20.9 38 18C38 10.26 31.74 4 24 4ZM30.12 17.56L28.46 19.22C28.18 19.5 28.02 20.04 28.12 20.44L28.6 22.5C28.98 24.12 28.12 24.76 26.68 23.9L24.68 22.72C24.32 22.5 23.72 22.5 23.36 22.72L21.36 23.9C19.92 24.74 19.06 24.12 19.44 22.5L19.92 20.44C20 20.06 19.86 19.5 19.58 19.22L17.88 17.56C16.9 16.58 17.22 15.6 18.58 15.38L20.72 15.02C21.08 14.96 21.5 14.64 21.66 14.32L22.84 11.96C23.48 10.68 24.52 10.68 25.16 11.96L26.34 14.32C26.5 14.64 26.92 14.96 27.3 15.02L29.44 15.38C30.78 15.6 31.1 16.58 30.12 17.56Z" fill="#FEC84B"/>
</svg>
